<mxfile host="Electron" modified="2024-01-11T11:52:31.652Z" agent="Mozilla/5.0 (Windows NT 10.0; Win64; x64) AppleWebKit/537.36 (KHTML, like Gecko) draw.io/22.1.2 Chrome/114.0.5735.289 Electron/25.9.4 Safari/537.36" etag="4yRhvLDZ69WHagDE4j1i" version="22.1.2" type="device">
  <diagram name="第 1 页" id="bmIdmQsd6jRdNfr3IdZV">
    <mxGraphModel dx="880" dy="451" grid="1" gridSize="10" guides="1" tooltips="1" connect="1" arrows="1" fold="1" page="1" pageScale="1" pageWidth="827" pageHeight="1169" math="0" shadow="0">
      <root>
        <mxCell id="0" />
        <mxCell id="1" parent="0" />
        <mxCell id="EBk4wCXXeZ2LlIkEYB5J-1" value="com.example.PalmHospitalService" style="shape=folder;fontStyle=1;spacingTop=10;tabWidth=41;tabHeight=20;tabPosition=left;html=1;whiteSpace=wrap;" vertex="1" parent="1">
          <mxGeometry x="299" y="90" width="230" height="50" as="geometry" />
        </mxCell>
        <mxCell id="EBk4wCXXeZ2LlIkEYB5J-2" value="bean" style="shape=folder;fontStyle=1;spacingTop=10;tabWidth=40;tabHeight=14;tabPosition=left;html=1;whiteSpace=wrap;" vertex="1" parent="1">
          <mxGeometry x="161" y="210" width="70" height="50" as="geometry" />
        </mxCell>
        <mxCell id="EBk4wCXXeZ2LlIkEYB5J-3" value="dao" style="shape=folder;fontStyle=1;spacingTop=10;tabWidth=40;tabHeight=14;tabPosition=left;html=1;whiteSpace=wrap;" vertex="1" parent="1">
          <mxGeometry x="271" y="210" width="70" height="50" as="geometry" />
        </mxCell>
        <mxCell id="EBk4wCXXeZ2LlIkEYB5J-4" value="servlet" style="shape=folder;fontStyle=1;spacingTop=10;tabWidth=40;tabHeight=14;tabPosition=left;html=1;whiteSpace=wrap;" vertex="1" parent="1">
          <mxGeometry x="381" y="210" width="70" height="50" as="geometry" />
        </mxCell>
        <mxCell id="EBk4wCXXeZ2LlIkEYB5J-5" value="backend" style="shape=folder;fontStyle=1;spacingTop=10;tabWidth=40;tabHeight=14;tabPosition=left;html=1;whiteSpace=wrap;" vertex="1" parent="1">
          <mxGeometry x="491" y="210" width="70" height="50" as="geometry" />
        </mxCell>
        <mxCell id="EBk4wCXXeZ2LlIkEYB5J-6" style="edgeStyle=orthogonalEdgeStyle;rounded=0;orthogonalLoop=1;jettySize=auto;html=1;exitX=0.5;exitY=1;exitDx=0;exitDy=0;exitPerimeter=0;entryX=0;entryY=0;entryDx=20;entryDy=0;entryPerimeter=0;" edge="1" parent="1" source="EBk4wCXXeZ2LlIkEYB5J-1" target="EBk4wCXXeZ2LlIkEYB5J-2">
          <mxGeometry relative="1" as="geometry" />
        </mxCell>
        <mxCell id="EBk4wCXXeZ2LlIkEYB5J-7" style="edgeStyle=orthogonalEdgeStyle;rounded=0;orthogonalLoop=1;jettySize=auto;html=1;exitX=0.5;exitY=1;exitDx=0;exitDy=0;exitPerimeter=0;entryX=0;entryY=0;entryDx=20;entryDy=0;entryPerimeter=0;" edge="1" parent="1" source="EBk4wCXXeZ2LlIkEYB5J-1" target="EBk4wCXXeZ2LlIkEYB5J-3">
          <mxGeometry relative="1" as="geometry" />
        </mxCell>
        <mxCell id="EBk4wCXXeZ2LlIkEYB5J-8" style="edgeStyle=orthogonalEdgeStyle;rounded=0;orthogonalLoop=1;jettySize=auto;html=1;exitX=0.5;exitY=1;exitDx=0;exitDy=0;exitPerimeter=0;entryX=0;entryY=0;entryDx=20;entryDy=0;entryPerimeter=0;" edge="1" parent="1" source="EBk4wCXXeZ2LlIkEYB5J-1" target="EBk4wCXXeZ2LlIkEYB5J-4">
          <mxGeometry relative="1" as="geometry" />
        </mxCell>
        <mxCell id="EBk4wCXXeZ2LlIkEYB5J-9" style="edgeStyle=orthogonalEdgeStyle;rounded=0;orthogonalLoop=1;jettySize=auto;html=1;exitX=0.5;exitY=1;exitDx=0;exitDy=0;exitPerimeter=0;entryX=0;entryY=0;entryDx=20;entryDy=0;entryPerimeter=0;" edge="1" parent="1" source="EBk4wCXXeZ2LlIkEYB5J-1" target="EBk4wCXXeZ2LlIkEYB5J-5">
          <mxGeometry relative="1" as="geometry" />
        </mxCell>
        <mxCell id="EBk4wCXXeZ2LlIkEYB5J-10" value="util" style="shape=folder;fontStyle=1;spacingTop=10;tabWidth=40;tabHeight=14;tabPosition=left;html=1;whiteSpace=wrap;" vertex="1" parent="1">
          <mxGeometry x="597" y="210" width="70" height="50" as="geometry" />
        </mxCell>
        <mxCell id="EBk4wCXXeZ2LlIkEYB5J-11" style="edgeStyle=orthogonalEdgeStyle;rounded=0;orthogonalLoop=1;jettySize=auto;html=1;exitX=0.5;exitY=1;exitDx=0;exitDy=0;exitPerimeter=0;entryX=0;entryY=0;entryDx=20;entryDy=0;entryPerimeter=0;" edge="1" parent="1" source="EBk4wCXXeZ2LlIkEYB5J-1" target="EBk4wCXXeZ2LlIkEYB5J-10">
          <mxGeometry relative="1" as="geometry" />
        </mxCell>
      </root>
    </mxGraphModel>
  </diagram>
</mxfile>
